<svg xmlns="http://www.w3.org/2000/svg" viewBox="0 0 32 32"><path fill="#F5E6FD" d="M7,31c-3.31368,0 -6,-2.68632 -6,-6v-18c0,-3.31368 2.68632,-6 6,-6h18c3.31368,0 6,2.68632 6,6v18c0,3.31368 -2.68632,6 -6,6Z"/><path fill="#BD63F9" fill-rule="evenodd" d="M18.836,11.3684c-1.2011,0 -2.2544,0.6165 -2.9308,1.5453c-0.0692,0.095 -0.1065,0.2096 -0.1065,0.3272v6.482c0,0.307 0.2488,0.5558 0.5558,0.5558h4.6083c1.6774,0 3.0372,-1.3598 3.0372,-3.0372c0,-1.1164 -0.6023,-2.0911 -1.4979,-2.6186c-0.3501,-1.8201 -1.8218,-3.2545 -3.6661,-3.2545Z"/><path fill="#D9A5FB" fill-rule="evenodd" d="M13.7432 12.8505c.3069 0 .5558.2489.5558.5558v6.6695c0 .3069-.2489.5558-.5558.5558-.307 0-.5558-.2489-.5558-.5558v-6.6695c0-.3069.2488-.5558.5558-.5558zM10.7789 13.5916c.307 0 .5558.2488.5558.5558v5.1873c0 .307-.2488.5558-.5558.5558-.3069 0-.5558-.2488-.5558-.5558v-5.1873c0-.307.2489-.5558.5558-.5558zM8.55579 15.0737c.30695 0 .55579.2488.55579.5558v2.9642c0 .3069-.24884.5558-.55579.5558-.30695 0-.55579-.2489-.55579-.5558v-2.9642c0-.307.24884-.5558.55579-.5558z"/></svg>